<svg width="24" height="24" viewBox="0 0 24 24" xmlns="http://www.w3.org/2000/svg">
  <defs>
    <linearGradient id="petalGradient" x1="0%" y1="0%" x2="100%" y2="100%">
      <stop offset="0%" style="stop-color:#ffb3d1;stop-opacity:1" />
      <stop offset="50%" style="stop-color:#ff8cc8;stop-opacity:0.9" />
      <stop offset="100%" style="stop-color:#ff4d9f;stop-opacity:0.8" />
    </linearGradient>
  </defs>
  <path d="M12 2C10 4 8 8 12 12C16 8 14 4 12 2Z" fill="url(#petalGradient)" />
  <path d="M12 12C16 14 20 12 18 8C14 6 10 10 12 12Z" fill="url(#petalGradient)" />
  <path d="M12 12C10 16 12 20 16 18C18 14 14 10 12 12Z" fill="url(#petalGradient)" />
  <path d="M12 12C8 14 6 18 10 16C12 12 8 8 12 12Z" fill="url(#petalGradient)" />
  <path d="M12 12C8 10 6 6 10 8C14 10 16 14 12 12Z" fill="url(#petalGradient)" />
</svg>